<?xml version="1.0" encoding="utf-8" ?>
<svg xmlns="http://www.w3.org/2000/svg" xmlns:xlink="http://www.w3.org/1999/xlink" width="512" height="512">
	<path transform="scale(0.5 0.5)" d="M507.68 200.649C512.845 199.643 518.894 201.268 524.007 202.112C535.824 204.065 549.004 213.138 555.847 222.832C558.212 226.182 560.734 229.488 562.314 233.304L562.57 233.968L563.786 236.875C565.147 240.235 565.341 243.267 566.006 246.75C567.967 257.014 567.679 267.634 563.486 277.41C558.303 289.493 548.915 301.513 536.303 306.359C535.501 306.667 535.074 306.804 534.373 307.318L657.831 493.991C668.434 487.895 679.59 482.516 690.446 476.876C701.881 470.936 713.222 464.664 724.398 458.25C772.266 430.775 817.747 397.548 858.887 360.826C851.316 354.991 844.123 348.617 838.956 340.482C831.712 329.08 828.201 314.031 831.238 300.694L831.689 298.703C834.838 284.47 843.51 270.789 855.973 262.97C866.025 256.665 876.98 253.74 888.818 254.147C891.341 254.234 894.093 254.215 896.554 254.81C901.138 255.918 905.771 257.358 910 259.481C923.133 266.075 932.957 277.017 938.006 290.75C939.013 293.489 939.37 296.158 940.196 298.886C942.15 305.334 942.092 316.444 940.59 323.026C938.743 331.116 935.813 337.493 930.905 344.203C920.234 358.796 906.039 364.953 888.602 367.634C887.801 371.898 887.561 376.23 886.75 380.49C882.041 405.233 877.418 429.956 873.019 454.75C869.863 472.534 865.911 490.196 862.495 507.931C859.252 524.773 856.385 541.701 853.234 558.562C851.054 570.223 848.453 581.81 846.277 593.484C844.472 603.165 843.218 613.032 841.473 622.75C837.604 644.299 832.751 665.679 829.007 687.25C826.95 699.1 824.354 710.883 822.25 722.729C821.611 726.328 821.349 729.979 820.666 733.575C820.365 735.161 817.304 749.336 817.452 749.69C817.558 749.944 819.815 750.81 820.201 750.973C824.068 752.605 827.503 754.824 831.018 757.106C839.132 762.374 846.178 771.117 850.419 779.75C853.407 785.832 855.732 792.788 856.023 799.607C856.266 805.311 855.835 810.682 851.679 815.047C849.033 817.827 845.079 819.947 841.25 820.379C837.254 820.83 833.048 820.569 829.024 820.555C822.216 820.532 815.408 820.503 808.6 820.474C787.636 820.385 766.674 820.419 745.711 820.428C669.225 820.46 592.733 820.056 516.25 820.257C489.388 820.937 462.387 820.418 435.51 820.433C383.586 820.462 331.674 820.424 279.751 820.171C258.21 820.066 236.541 819.975 215.008 820.38C205.532 820.559 195.947 821.725 186.5 821.472C183.583 821.394 180.585 820.647 177.976 819.336C173.582 817.128 170.227 813.168 168.845 808.415C166.328 799.757 169.474 787.792 173.393 779.976C178.349 770.094 185.902 762.167 195.02 756.028C198.25 753.853 202.054 751.447 205.802 750.309L206.757 750.037C203.486 734.264 201.024 718.321 198.005 702.5C190.94 665.479 183.514 628.526 176.542 591.5C174.226 579.2 172.425 566.791 170.006 554.5C164.382 525.919 159.283 497.246 153.796 468.654C149.802 447.838 145.698 427.081 141.883 406.232C140.083 396.398 138.001 386.388 136.674 376.498C136.293 373.655 136.338 370.776 135.952 367.914L134.337 367.661C116.791 364.607 103.039 358.003 92.4557 343.25C89.25 338.781 87.0632 334.182 85.2373 329.017C80.1715 314.686 81.5815 299.167 88.3035 285.645C94.9656 272.244 106.966 261.344 121.234 256.606C134.376 252.241 149.705 253.503 161.986 259.879C175.332 266.807 185.165 278.34 189.993 292.5C193.871 303.874 194.52 314.393 191.487 326C187.349 341.829 177.838 351.968 163.849 359.828C167.903 363.23 171.687 367.069 175.75 370.492C182.264 375.98 189.011 381.507 195.652 386.845C237.367 420.377 282.051 449.741 329.361 474.75C341.704 481.275 354.063 487.968 366.894 493.491C368.233 491.907 368.973 489.198 369.935 487.314C371.925 483.418 374.14 479.631 376.294 475.824C383.259 463.509 390.878 451.461 398.197 439.344C417.949 406.641 439.483 374.722 461.884 343.785C470.617 331.725 479.235 319.098 488.902 307.775L482.75 303.879C472.334 296.981 463.932 287.224 459.714 275.401C458.557 272.159 458.065 268.84 457.315 265.505L456.789 263.127C454.599 250.6 459.188 234.757 466.455 224.517C473.493 214.6 484.123 206.427 495.861 202.925C499.642 201.796 503.777 201.288 507.68 200.649ZM511.492 318.75C497.557 339.144 481.987 358.431 467.908 378.75C440.644 418.095 415.174 458.447 391.974 500.302C388.885 505.874 385.48 511.317 382.474 516.921C373.477 533.691 365.531 550.92 357.801 568.291C355.205 574.126 352.205 579.821 349.728 585.695C341.309 605.655 334.141 626.152 328.141 646.957C325.382 656.52 322.737 666.084 320.358 675.75C318.276 684.205 316.138 693.22 315.795 701.922L417.172 702.336C418.471 689.954 421.258 677.803 424.321 665.75C435.895 620.196 456.316 576.629 483.751 538.501C487.843 532.814 492.167 527.412 496.657 522.038C499.144 519.061 501.568 515.681 504.601 513.233C506.64 511.588 509.126 510.757 511.663 510.212L512.295 510.266C517.094 510.737 520.064 513.086 523.01 516.75C542.41 540.882 559.992 565.502 572.581 593.979C575.021 599.497 577.896 604.849 580.385 610.349C584.17 618.711 587.074 627.804 589.999 636.5C592.792 644.8 596.171 653.43 597.837 662.018C598.341 664.617 599.303 667.082 599.796 669.75L604.634 691.786C605.43 694.741 604.877 699.563 606.305 702.053L707.574 702.18C707.103 696.01 705.846 690 704.68 683.935C701.73 668.585 697.575 653.511 692.894 638.599C687.75 622.215 682.3 605.988 675.863 590.055C647.618 520.145 607.585 455.081 565.553 392.75C560.216 384.835 554.321 377.24 548.809 369.44C539.742 356.612 530.576 343.813 521.125 331.25C518.084 327.208 515.555 322.525 512.132 318.831L511.492 318.75ZM858.2 394.75C820.292 424.267 782.248 453.23 740.872 477.842C717.692 491.63 693.287 503.737 669.232 515.934L702.601 589.546L706.75 600.045L718.846 637.922C720.208 641.836 720.759 646.32 722.274 650.109L724.752 659.547C725.455 661.797 725.712 664.064 726.25 666.333C729.061 678.188 731.01 690.097 733.294 702.02L800.829 702.401L858.821 395.065L858.2 394.75ZM164.682 392.75L165.925 399.25L222.718 702.017C239.404 702.208 256.096 702.144 272.783 702.152C276.624 702.154 280.464 702.144 284.305 702.153C286.196 702.158 288.623 702.445 290.424 701.879C291.97 683.513 296.638 665.882 301.338 648.119C310.409 613.377 324.333 579.366 339.523 546.888C344.402 536.457 349.972 526.379 354.811 515.933C305.724 492.823 259.436 464.66 215.261 433.252C202.978 424.519 190.679 415.144 179.075 405.511C175.236 402.324 171.847 398.679 167.992 395.498C167.106 394.768 165.657 393.174 164.682 392.75ZM511.218 543.25C483.436 578.935 462.745 621.768 450.38 665.228C447.989 673.633 446.021 682.013 444.194 690.554C443.387 694.33 443.043 698.266 442.03 701.982L511.375 702.091L580.578 701.946C580.012 694.326 578.24 686.946 576.625 679.5C573.756 666.276 569.571 653.717 564.961 641.003C554.876 613.191 541.949 586.858 525.598 562.176C521.446 555.909 517.049 548.558 511.742 543.254L511.218 543.25ZM213.179 773.75C207.237 775.328 199.665 784.58 196.619 789.836L194.311 794.892L811.875 794.953L830.08 795.016C826.06 787.289 819.282 778.186 811.466 773.913C810.193 773.218 807.42 773.492 805.953 773.482C800.822 773.445 795.687 773.48 790.556 773.481C765.773 773.483 740.991 773.52 716.208 773.525C599.729 773.545 483.249 773.549 366.769 773.515C331.588 773.504 296.408 773.482 261.228 773.508C250.492 773.516 239.755 773.526 229.019 773.548C223.875 773.559 218.266 773.146 213.179 773.75ZM482.1 726.746L227.261 727C227.707 729.794 228.61 732.169 229.211 734.855C229.7 737.037 229.875 739.292 230.629 741.399C231.394 743.54 231.442 746.11 231.667 748.368L542.625 748.201L793.308 748.364C793.925 741.387 794.254 734.266 796.455 727.561L482.1 726.746ZM882.469 279.682C873.418 281.43 865.706 285.359 860.507 293.187C856.227 299.632 854.195 308.623 855.727 316.303C857.436 324.875 863.03 333.133 870.443 337.741C873.604 339.706 877.121 340.836 880.75 341.573L881.353 341.704C884.045 342.249 887.401 342.084 890.116 341.684C892.575 341.045 895.335 340.554 897.682 339.596C903.718 337.133 909.119 331.868 912.358 326.289C916.049 319.932 917.759 311.08 915.711 303.904C913.207 295.135 907.952 287.454 899.883 282.946C894.51 279.943 888.482 279.455 882.469 279.682ZM133.92 279.655C125.248 281.563 117.999 285.838 113.002 293.356C111.081 296.246 109.9 299.175 108.959 302.5C106.929 309.672 107.155 317.453 110.685 324.207L113.379 328.937C117.343 335.565 124.366 339.825 131.75 341.477C135.201 342.25 139.262 342.168 142.743 341.521C151.333 339.426 158.742 335.687 163.462 327.884C165.376 324.72 166.213 321.905 167.281 318.413C169.143 312.325 168.179 306.588 166.407 300.671C164.111 293.007 158.808 286.745 151.823 282.895C146.403 279.907 139.986 279.286 133.92 279.655ZM508.228 226.59C498.872 228.756 491.624 232.026 486.412 240.614C482.378 247.261 480.15 255.622 482.366 263.294L483.022 265L483.404 266.134C486.45 275.187 492.326 281.014 500.817 285.115C503.591 286.455 506.574 286.697 509.571 287.189C511.541 287.512 513.159 287.302 515.111 286.942C523.445 285.593 531.34 281.456 536.356 274.459C538.579 271.358 539.96 268.145 541.024 264.5L541.301 263.58C543.424 256.304 541.058 248.309 537.439 241.902C533.398 234.747 528.073 229.785 519.977 227.573C516.061 226.502 512.274 226.102 508.228 226.59Z"/>
</svg>
